<?xml version="1.0" encoding="utf-8"?>
<svg height="512" version="1.1" viewBox="0 0 512 512" width="512" xmlns="http://www.w3.org/2000/svg">
<path d="M0 0 C9.00407428 7.28823436 16.35505421 18.39725737 18 30 C19.40895106 47.55709566 16.56638733 60.95954698 5.4140625 74.99609375 C-2.81286908 84.00558711 -14.56118495 89.6401856 -26.6484375 90.3125 C-43.13318085 90.87527929 -56.29779856 87.1831071 -68.75 75.8125 C-79.88418197 63.87537222 -82.79661278 50.59493337 -82.34765625 34.859375 C-81.66544342 22.17363965 -75.51939918 10.54786869 -66.328125 1.8828125 C-46.81460007 -13.89825967 -20.39462651 -14.83872995 0 0 Z " fill="#1C3930" transform="translate(82,10)"/>
<path d="M0 0 C3.09795153 -0.44733352 5.01958885 -0.72084989 8 0 C10.61758937 2.41658511 12.24410445 5.29847315 14 8.375 C14.48855469 9.1690625 14.97710937 9.963125 15.48046875 10.78125 C19 16.59784226 19 16.59784226 19 19 C21.25549842 16.90939019 22.74459745 14.90970631 24.19921875 12.20703125 C24.80733398 11.1387207 24.80733398 11.1387207 25.42773438 10.04882812 C26.2679588 8.55726693 27.08839463 7.05438544 27.88867188 5.54101562 C29.12837722 3.40887763 30.19812792 1.68829678 32 0 C34.94433567 -0.6774758 36.94513401 -0.4066648 40 0 C37.98099588 5.43954994 35.02805474 10.06295423 32 15 C38.93 15.495 38.93 15.495 46 16 C46 18.31 46 20.62 46 23 C28.84 23 11.68 23 -6 23 C-6 20.69 -6 18.38 -6 16 C-1.05 16 3.9 16 9 16 C8.3503125 15.01257812 7.700625 14.02515625 7.03125 13.0078125 C6.18726167 11.71369707 5.34352465 10.41941771 4.5 9.125 C4.07074219 8.47402344 3.64148437 7.82304687 3.19921875 7.15234375 C0 2.2265625 0 2.2265625 0 0 Z " fill="#75E673" transform="translate(30,24)"/>
<path d="M0 0 C17.16 0 34.32 0 52 0 C52 1.98 52 3.96 52 6 C46.72 6 41.44 6 36 6 C36.721875 7.05960938 37.44375 8.11921875 38.1875 9.2109375 C39.12524162 10.5987951 40.06272848 11.98682488 41 13.375 C41.47695312 14.07367188 41.95390625 14.77234375 42.4453125 15.4921875 C42.89648438 16.1625 43.34765625 16.8328125 43.8125 17.5234375 C44.23144531 18.14138184 44.65039062 18.75932617 45.08203125 19.39599609 C46 21 46 21 46 23 C42.90204847 23.44733352 40.98041115 23.72084989 38 23 C35.38241063 20.58341489 33.75589555 17.70152685 32 14.625 C31.51144531 13.8309375 31.02289063 13.036875 30.51953125 12.21875 C27 6.40215774 27 6.40215774 27 4 C26.34 4 25.68 4 25 4 C24.63261719 5.01126953 24.63261719 5.01126953 24.2578125 6.04296875 C22.72215428 9.6531963 20.89465148 12.95448358 18.875 16.3125 C18.34519531 17.28026367 18.34519531 17.28026367 17.8046875 18.26757812 C16.6796875 20.11328125 16.6796875 20.11328125 14 23 C11.11473654 23.57395026 8.9731594 23.33628759 6 23 C8.1349988 17.10179626 11.59049546 12.24053475 15 7 C10.05 7 5.1 7 0 7 C0 4.69 0 2.38 0 0 Z " fill="#76E774" transform="translate(24,53)"/>
</svg>
